<?xml version="1.0" standalone="no"?>
<svg xmlns="http://www.w3.org/2000/svg" viewBox="0 0 143.352 29" width="143.352" height="29"><g fill="#8e3b46" color="#8e3b46" transform="translate(0, 0) scale(0.90625)"><svg width="32.0" height="32.0" x="0.0" y="0.0" viewBox="0 0 32 32"><g><path fill="currentColor" d="M29.5,21h-2.691c-0.045-0.239-0.1-0.473-0.16-0.706l4.799-2.399c0.494-0.247,0.693-0.848,0.447-1.342   c-0.248-0.494-0.846-0.692-1.342-0.447l-4.578,2.288C24.229,14.626,20.42,12,16,12c-5.382,0-9.865,3.888-10.809,9H2.5   C1.122,21,0,22.121,0,23.5c0,0.49,0.18,0.963,0.505,1.329L4,28.761V29.5C4,30.879,5.122,32,6.5,32h19c1.379,0,2.5-1.121,2.5-2.5   v-0.739l3.494-3.932C31.82,24.463,32,23.99,32,23.5C32,22.121,30.879,21,29.5,21z M25.799,21h-0.562l0.498-0.25   C25.754,20.834,25.781,20.915,25.799,21z M16,13c4.029,0,7.5,2.4,9.082,5.841l-0.891,0.445C22.775,16.171,19.645,14,16,14   c-4.282,0-7.859,2.993-8.77,7H6.202C7.131,16.441,11.171,13,16,13z M20.576,21c-0.773-1.763-2.531-3-4.576-3s-3.802,1.237-4.576,3   H10.35c0.826-2.326,3.043-4,5.65-4c2.465,0,4.588,1.496,5.508,3.627L20.764,21H20.576z M16,20c-0.883,0-1.67,0.391-2.22,1h-1.224   c0.694-1.189,1.97-2,3.444-2c1.473,0,2.75,0.811,3.443,2h-1.225C17.67,20.391,16.883,20,16,20z M16,16   c-3.165,0-5.842,2.112-6.705,5H8.263c0.892-3.444,4.017-6,7.737-6c3.246,0,6.043,1.948,7.295,4.734l-0.893,0.446   C21.314,17.723,18.855,16,16,16z M26,28v1.5c0,0.276-0.225,0.5-0.5,0.5h-19C6.224,30,6,29.776,6,29.5V28l-4-4.5   C2,23.224,2.224,23,2.5,23H5h1h1h1h1h1h1h1h1h6h1h1h1h1h1h1h1h1h2.5c0.275,0,0.5,0.224,0.5,0.5L26,28z"></path><path fill="currentColor" d="M7.977,11.712c0.003,0.006,0.005,0.012,0.008,0.018c0,0,0.001,0,0.002,0C8.07,11.89,8.236,12,8.43,12   c0.277,0,0.502-0.226,0.502-0.503c0-0.043-0.007-0.085-0.018-0.125c0.002-0.007,0.002-0.013,0-0.02   c-0.375-0.882-0.019-1.85,0.419-2.892c0.473-1.126,0.98-2.376,0.422-3.647C9.684,4.63,9.507,4.5,9.299,4.5   c-0.271,0-0.49,0.22-0.49,0.49c0,0.06,0.012,0.116,0.032,0.169c0,0.002,0,0.004,0.001,0.006c0.001,0.003,0.002,0.006,0.003,0.009   C8.847,5.178,8.848,5.182,8.85,5.186c0.404,0.909,0.013,1.841-0.428,2.893C7.956,9.188,7.44,10.417,7.959,11.67   C7.965,11.685,7.97,11.698,7.977,11.712z"></path><path fill="currentColor" d="M20.154,11.566c0.004,0.006,0.006,0.012,0.008,0.018h0.002c0.084,0.16,0.25,0.271,0.443,0.271   c0.277,0,0.504-0.226,0.504-0.503c0-0.043-0.008-0.085-0.018-0.125c0.002-0.007,0.002-0.013-0.002-0.02   c-0.373-0.882-0.018-1.85,0.42-2.892c0.473-1.126,0.98-2.376,0.422-3.647c-0.072-0.184-0.248-0.313-0.457-0.313   c-0.27,0-0.49,0.22-0.49,0.49c0,0.06,0.014,0.116,0.033,0.169c0,0.002,0,0.004,0,0.006c0.002,0.003,0.002,0.006,0.004,0.009   c0.002,0.004,0.004,0.008,0.004,0.012c0.404,0.909,0.014,1.841-0.428,2.893c-0.465,1.109-0.98,2.339-0.461,3.592   C20.143,11.539,20.148,11.553,20.154,11.566z"></path><path fill="currentColor" d="M15.019,7.212c0.003,0.006,0.005,0.012,0.008,0.018c0,0,0.001,0,0.002,0c0.084,0.16,0.25,0.271,0.443,0.271   c0.277,0,0.502-0.226,0.502-0.503c0-0.043-0.007-0.085-0.018-0.125c0.002-0.007,0.002-0.013,0-0.02   c-0.375-0.882-0.019-1.85,0.419-2.892c0.473-1.126,0.98-2.376,0.422-3.647C16.725,0.13,16.549,0,16.34,0   c-0.27,0-0.49,0.22-0.49,0.49c0,0.06,0.012,0.116,0.032,0.169c0,0.002,0,0.004,0.001,0.006c0.001,0.003,0.002,0.006,0.003,0.009   c0.001,0.004,0.003,0.008,0.004,0.012c0.404,0.909,0.013,1.841-0.428,2.893c-0.466,1.109-0.982,2.339-0.462,3.592   C15.007,7.185,15.012,7.198,15.019,7.212z"></path></g></svg></g><line x1="41" y1="1" x2="41" y2="28" stroke="#477890" stroke-linecap="round"></line><path fill="#477890" fill-rule="nonzero" d="M0 21.67L0 1.06L5.69 1.06Q7.90 1.06 9 2.28Q10.10 3.50 10.13 5.90L10.13 5.90L10.18 15.55Q10.20 18.60 9.12 20.14Q8.04 21.67 5.54 21.67L5.54 21.67L0 21.67ZM4.15 18.02L4.87 18.02Q6 18.02 6 16.92L6 16.92L6 6.29Q6 5.59 5.89 5.24Q5.78 4.90 5.50 4.78Q5.21 4.66 4.61 4.66L4.61 4.66L4.15 4.66L4.15 18.02ZM16.68 21.86Q13.97 21.86 12.79 20.38Q11.62 18.89 11.62 15.94L11.62 15.94L11.62 8.88Q11.62 6.46 13.01 5.18Q14.40 3.91 16.90 3.91L16.90 3.91Q21.96 3.91 21.96 8.88L21.96 8.88L21.96 10.15Q21.96 12.07 21.91 13.27L21.91 13.27L15.82 13.27L15.82 16.68Q15.82 17.59 16.01 18.11Q16.20 18.62 16.82 18.62L16.82 18.62Q17.30 18.62 17.51 18.34Q17.71 18.05 17.75 17.68Q17.78 17.30 17.78 16.58L17.78 16.58L17.78 14.88L21.96 14.88L21.96 15.89Q21.96 18.96 20.77 20.41Q19.58 21.86 16.68 21.86L16.68 21.86ZM15.79 11.18L17.78 11.18L17.78 8.93Q17.78 7.03 16.85 7.03L16.85 7.03Q15.79 7.03 15.79 8.93L15.79 8.93L15.79 11.18ZM27.74 21.67L23.47 21.67L23.47 0.94L27.74 0.94L27.74 21.67ZM33.60 2.93L29.40 2.93L29.40 0L33.60 0L33.60 2.93ZM33.60 21.67L29.40 21.67L29.40 4.10L33.60 4.10L33.60 21.67ZM42.36 21.67L37.49 21.67L34.68 4.10L38.88 4.10L39.74 12.98L39.89 15.84L40.06 12.96L41.02 4.10L45.22 4.10L42.36 21.67ZM51.24 21.86Q48.53 21.86 47.35 20.38Q46.18 18.89 46.18 15.94L46.18 15.94L46.18 8.88Q46.18 6.46 47.57 5.18Q48.96 3.91 51.46 3.91L51.46 3.91Q56.52 3.91 56.52 8.88L56.52 8.88L56.52 10.15Q56.52 12.07 56.47 13.27L56.47 13.27L50.38 13.27L50.38 16.68Q50.38 17.59 50.57 18.11Q50.76 18.62 51.38 18.62L51.38 18.62Q51.86 18.62 52.07 18.34Q52.27 18.05 52.31 17.68Q52.34 17.30 52.34 16.58L52.34 16.58L52.34 14.88L56.52 14.88L56.52 15.89Q56.52 18.96 55.33 20.41Q54.14 21.86 51.24 21.86L51.24 21.86ZM50.35 11.18L52.34 11.18L52.34 8.93Q52.34 7.03 51.41 7.03L51.41 7.03Q50.35 7.03 50.35 8.93L50.35 8.93L50.35 11.18ZM64.82 21.86Q63.10 21.86 62.35 19.80L62.35 19.80L62.35 21.67L58.03 21.67L58.03 0.94L62.35 0.94L62.35 4.94Q63.36 3.91 64.70 3.91L64.70 3.91Q66.74 3.91 67.63 5.12Q68.52 6.34 68.52 8.62L68.52 8.62L68.52 17.09Q68.52 19.25 67.61 20.56Q66.70 21.86 64.82 21.86L64.82 21.86ZM63.41 18.60Q63.84 18.60 64.02 18.32Q64.20 18.05 64.24 17.63Q64.27 17.21 64.27 16.32L64.27 16.32L64.27 9Q64.27 8.06 64.10 7.61Q63.94 7.15 63.38 7.15L63.38 7.15Q62.78 7.15 62.57 7.61Q62.35 8.06 62.35 8.95L62.35 8.95L62.35 16.32Q62.35 17.47 62.54 18.04Q62.74 18.60 63.41 18.60L63.41 18.60ZM75.17 21.86Q69.91 21.86 69.91 16.42L69.91 16.42L69.91 9.36Q69.91 6.86 71.32 5.39Q72.72 3.91 75.17 3.91L75.17 3.91Q77.62 3.91 79.02 5.39Q80.42 6.86 80.42 9.36L80.42 9.36L80.42 16.42Q80.42 21.86 75.17 21.86L75.17 21.86ZM75.17 18.62Q75.67 18.62 75.91 18.26Q76.15 17.90 76.15 17.28L76.15 17.28L76.15 8.69Q76.15 7.15 75.17 7.15L75.17 7.15Q74.18 7.15 74.18 8.69L74.18 8.69L74.18 17.28Q74.18 17.90 74.42 18.26Q74.66 18.62 75.17 18.62L75.17 18.62ZM87.10 21.86Q81.84 21.86 81.84 16.42L81.84 16.42L81.84 9.36Q81.84 6.86 83.24 5.39Q84.65 3.91 87.10 3.91L87.10 3.91Q89.54 3.91 90.95 5.39Q92.35 6.86 92.35 9.36L92.35 9.36L92.35 16.42Q92.35 21.86 87.10 21.86L87.10 21.86ZM87.10 18.62Q87.60 18.62 87.84 18.26Q88.08 17.90 88.08 17.28L88.08 17.28L88.08 8.69Q88.08 7.15 87.10 7.15L87.10 7.15Q86.11 7.15 86.11 8.69L86.11 8.69L86.11 17.28Q86.11 17.90 86.35 18.26Q86.59 18.62 87.10 18.62L87.10 18.62Z" transform="translate(51, 3.664)"></path></svg>